<svg id="Quotly_Logo" data-name="Quotly_Logo" xmlns="http://www.w3.org/2000/svg" viewBox="0 0 685.47 685.47">
  <title>Quotly</title>
  <path d="M561.77,204.81c0-49.77,58.91-140.49,3.12-136.09,0,0-.5-6.5-4.16-5.83s-5.5,3.5-5,6.33,1.33,8,5.83,7.67,3.67-6,3.67-6" fill="none" stroke="#2663e9" stroke-linecap="round" stroke-linejoin="round" stroke-width="20"/>
  <path d="M341.89,53.39c-129.78,0-235,105.21-235,235s105.22,235,235,235c124.24,0,226-96.4,234.43-218.48q.57-8.19.57-16.52C576.89,158.6,471.68,53.39,341.89,53.39Zm168,246.84a168.49,168.49,0,1,1,.41-11.84Q510.29,294.36,509.88,300.23Z" fill="#2663e9"/>
  <path d="M319.53,289.76c0,18.57-15.06,5.63-33.64,5.63s-33.63,12.94-33.63-5.63a33.64,33.64,0,1,1,67.27,0Z" fill="#2663e9"/>
  <path d="M429.33,287.39c0,19.33-15.67,7-35,7s-35,12.33-35-7a35,35,0,0,1,70,0Z" fill="#2663e9"/>
  <path d="M521.53,501.87c-20.11,18.8-44.15,32.17-74,42.08-22.3,7.39-24.74,37.91-3.82,48.58a468.18,468.18,0,0,0,95.64,35.8A26.36,26.36,0,0,0,572.22,602c-.69-21.65-2.42-51.78-6.65-84.07C562.79,496.65,537.17,487.24,521.53,501.87Z" fill="#2663e9"/>
</svg>
